<svg width="200" height="60" viewBox="0 0 200 60" fill="none" xmlns="http://www.w3.org/2000/svg">
  <!-- Shield Background -->
  <path d="M8 15C8 12.7909 9.79086 11 12 11H20C20.5523 11 21 11.4477 21 12V35C21 41.0751 16.0751 46 10 46H10C9.44772 46 9 45.5523 9 45V16C9 15.4477 8.55228 15 8 15Z" fill="url(#gradient1)"/>
  
  <!-- Shield Outline -->
  <path d="M30 8C27.2386 8 25 10.2386 25 13V30C25 38.8366 18.8366 46 10 46V46C7.23858 46 5 43.7614 5 41V13C5 10.2386 7.23858 8 10 8H30Z" stroke="url(#gradient2)" stroke-width="2"/>
  
  <!-- Lock Icon -->
  <rect x="15" y="22" width="10" height="8" rx="1" fill="white"/>
  <path d="M17 22V19C17 17.3431 18.3431 16 20 16V16C21.6569 16 23 17.3431 23 19V22" stroke="white" stroke-width="1.5" stroke-linecap="round"/>
  <circle cx="20" cy="26" r="1.5" fill="#3B82F6"/>
  
  <!-- Text "SecureMe" -->
  <text x="45" y="25" font-family="Inter, system-ui, sans-serif" font-size="20" font-weight="700" fill="url(#textGradient)">Secure</text>
  <text x="120" y="25" font-family="Inter, system-ui, sans-serif" font-size="20" font-weight="700" fill="#3B82F6">Me</text>
  
  <!-- Tagline -->
  <text x="45" y="40" font-family="Inter, system-ui, sans-serif" font-size="10" font-weight="400" fill="#64748B">Your Digital Security Guardian</text>
  
  <!-- Gradients -->
  <defs>
    <linearGradient id="gradient1" x1="0%" y1="0%" x2="100%" y2="100%">
      <stop offset="0%" style="stop-color:#3B82F6;stop-opacity:1" />
      <stop offset="100%" style="stop-color:#1E40AF;stop-opacity:1" />
    </linearGradient>
    <linearGradient id="gradient2" x1="0%" y1="0%" x2="100%" y2="100%">
      <stop offset="0%" style="stop-color:#60A5FA;stop-opacity:1" />
      <stop offset="100%" style="stop-color:#2563EB;stop-opacity:1" />
    </linearGradient>
    <linearGradient id="textGradient" x1="0%" y1="0%" x2="100%" y2="0%">
      <stop offset="0%" style="stop-color:#1E293B;stop-opacity:1" />
      <stop offset="100%" style="stop-color:#475569;stop-opacity:1" />
    </linearGradient>
  </defs>
</svg>
